Coordinates
version=1
nRows=17
nColumns=36
inDegrees=yes

Units are S.I. units (second, meters, Newtons, ...)
If the header above contains a line with 'inDegrees', this indicates whether rotational values are in degrees (yes) or radians (no).

endheader
time	pelvis_tilt	pelvis_list	pelvis_rotation	pelvis_tx	pelvis_ty	pelvis_tz	hip_flexion_r	hip_adduction_r	hip_rotation_r	knee_angle_r	knee_angle_r_beta	ankle_angle_r	subtalar_angle_r	mtp_angle_r	hip_flexion_l	hip_adduction_l	hip_rotation_l	knee_angle_l	knee_angle_l_beta	ankle_angle_l	subtalar_angle_l	mtp_angle_l	lumbar_extension	lumbar_bending	lumbar_rotation	arm_flex_r	arm_add_r	arm_rot_r	elbow_flex_r	pro_sup_r	arm_flex_l	arm_add_l	arm_rot_l	elbow_flex_l	pro_sup_l
      0.98000000	     -3.44204841	      2.28610005	      4.40861455	      1.08415740	      0.94156865	     -0.21030168	     30.24557380	     -2.93367508	      2.68342766	     15.40588602	      0.26888344	     -3.65403304	    -10.89394045	     -7.26739917	     -5.75325862	      6.41343123	     -0.24838045	      4.02128777	      0.07018471	     14.42468064	      9.47765033	     -7.26739917	     -7.80550625	     -4.68381954	    -12.20121447	    -15.87376055	    -11.62741455	     13.24903032	     27.30624706	    106.51227644	     11.25258637	    -12.23542256	     -3.66839043	     66.42008640	    102.14323679
      0.99000000	     -3.37513693	      2.49606965	      4.62618518	      1.09653049	      0.93924123	     -0.21018382	     29.89167393	     -3.36215975	      1.57934492	     12.02971369	      0.20995811	     -2.50691220	     -8.32081619	     -7.28063156	     -6.67189794	      6.47314288	     -0.40658165	      4.11666787	      0.07184941	     15.42084773	     10.52372718	     -7.28063156	     -7.93706457	     -4.86866617	    -12.38880059	    -16.60740963	    -11.63684005	     12.54612029	     27.42649929	    106.30275723	     11.93114366	    -12.53132651	     -3.12775439	     67.39477821	    102.35680414
      1.00000000	     -3.62974574	      2.69648222	      4.88701980	      1.10883723	      0.93645476	     -0.20983489	     29.84882924	     -3.67488629	      0.95568150	      8.93313633	      0.15591264	     -2.24728731	     -7.35991851	     -7.28253954	     -7.16565884	      6.55069018	     -0.02280215	      4.37409298	      0.07634232	     15.93606576	     10.56610185	     -7.28253954	     -7.68450620	     -5.13087672	    -12.61892615	    -17.22925194	    -11.66297054	     12.45517264	     27.32563986	    106.27657024	     12.49823578	    -12.71879462	     -2.84374196	     68.27010458	    102.48717498
      1.01000000	     -3.76567664	      2.82503651	      5.16113361	      1.12139449	      0.93375728	     -0.20954005	     29.72277859	     -3.89594627	      0.04486807	      6.40734173	      0.11182921	     -1.88909927	     -6.53960197	     -7.28407271	     -7.75224445	      6.53939241	      0.28815446	      4.69599971	      0.08196066	     16.51239600	     10.54397711	     -7.28407271	     -7.51979282	     -5.24464268	    -12.85378512	    -17.80643525	    -11.71787807	     12.33421096	     27.25699602	    106.24550936	     12.96475074	    -12.86845228	     -2.60941906	     69.07338798	    102.60977671
      1.02000000	     -3.62291342	      2.72525721	      5.49582478	      1.13402376	      0.93145793	     -0.20924412	     29.35841663	     -3.90302741	     -1.56347985	      4.52852595	      0.07903769	     -0.78468008	     -4.21641806	     -7.29545668	     -8.51726132	      6.21061495	      0.60671484	      5.25617186	      0.09173751	     17.53873131	     10.88089175	     -7.29545668	     -7.75097769	     -5.03765187	    -13.26677961	    -18.31776245	    -11.73821221	     11.31629119	     27.68589209	    106.08154364	     13.33091950	    -13.07151301	     -2.44230963	     69.94969087	    102.90267105
      1.03000000	     -3.72256199	      2.63221130	      5.83099966	      1.14670880	      0.92887296	     -0.20871162	     29.30212777	     -3.82413226	     -2.60606901	      3.27708924	      0.05719600	     -0.45675448	     -4.02284080	     -7.29789262	     -8.91579955	      5.91073199	      1.03048197	      5.99693335	      0.10466623	     18.14836154	     10.63159451	     -7.29789262	     -7.61577931	     -4.91267950	    -13.57221803	    -18.70690563	    -11.78760217	     11.14328509	     27.68261040	    106.05509266	     13.65648556	    -13.18090509	     -2.27379221	     70.51462957	    103.01932153
      1.04000000	     -3.77297592	      2.47254341	      6.17455001	      1.15955661	      0.92642698	     -0.20818218	     29.31424568	     -3.68071617	     -4.00215700	      2.82356939	      0.04928058	      0.16094553	     -3.56136413	     -7.30782279	     -9.27236923	      5.52684445	      1.42576665	      6.92514025	      0.12086650	     18.82252498	     10.47002723	     -7.30782279	     -7.54798589	     -4.67284798	    -13.93184085	    -19.06797709	    -11.76602095	     10.37629633	     27.95201280	    105.95554914	     13.78643261	    -13.19622995	     -2.40424516	     71.21795682	    103.27853519
      1.05000000	     -3.78991931	      2.26917167	      6.49650582	      1.17259105	      0.92415618	     -0.20748344	     29.27794421	     -3.43999201	     -4.99900506	      2.87767732	      0.05022494	      0.39909210	     -4.05938860	     -7.30917796	     -9.62730998	      5.08339013	      1.84001647	      7.89705264	      0.13782957	     19.06517063	     10.16307318	     -7.30917796	     -7.48390147	     -4.41470950	    -14.08191806	    -19.34153232	    -11.77648817	     10.28442510	     27.89405318	    105.93752628	     14.00336174	    -13.09784473	     -2.33956834	     71.66131957	    103.35466266
      1.06000000	     -3.87486349	      1.99039834	      6.82800487	      1.18577738	      0.92189646	     -0.20672248	     29.40351530	     -3.14646429	     -6.05481932	      3.51897483	      0.06141770	      0.21263733	     -4.74862101	     -7.31381146	     -9.77178352	      4.57536416	      2.26312177	      9.13553599	      0.15944518	     19.64537212	      9.49041543	     -7.31381146	     -7.29743558	     -4.05776327	    -14.51540566	    -19.47374616	    -11.77088908	      9.74686774	     28.08672179	    105.84590829	     13.80419155	    -13.10169386	     -2.56064787	     72.18140451	    103.48833124
      1.07000000	     -3.89318267	      1.70912735	      7.08526853	      1.19928068	      0.91988740	     -0.20581596	     29.48417415	     -2.81286871	     -6.85814826	      4.58312897	      0.07999069	     -0.19345289	     -5.66127197	     -7.31747607	     -9.99389539	      4.06246137	      2.63734846	     10.37357778	      0.18105309	     19.74567742	      8.83189938	     -7.31747607	     -7.16186695	     -3.70089159	    -14.74474693	    -19.57996319	    -11.77274392	      9.30048046	     28.17979868	    105.76305518	     13.61077919	    -13.00430163	     -2.77301089	     72.58398794	    103.58774770
      1.08000000	     -3.98281720	      1.45028718	      7.26081618	      1.21295616	      0.91796154	     -0.20471559	     29.65924122	     -2.45988132	     -7.22917830	      5.85911412	      0.10226083	     -1.25253401	     -7.09094963	     -7.32452533	    -10.12186316	      3.61343360	      3.14384842	     11.64595255	      0.20326022	     19.53744600	      7.79373871	     -7.32452533	     -6.94203367	     -3.37496078	    -14.93130685	    -19.59284591	    -11.68311343	      8.51074778	     28.37443656	    105.61702886	     13.14169062	    -12.79460124	     -3.19418459	     73.06175689	    103.73869681
      1.09000000	     -3.86012138	      1.12637932	      7.38359922	      1.22698912	      0.91654603	     -0.20349933	     29.64538406	     -2.03911899	     -7.67311157	      7.40631043	      0.12926450	     -2.15575941	     -7.76201990	     -7.32631206	    -10.42859547	      3.04062925	      3.35734655	     12.99003763	      0.22671893	     19.17004529	      7.17540901	     -7.32631206	     -6.91362584	     -2.99181386	    -14.89912262	    -19.55396324	    -11.61068244	      8.31754552	     28.38864205	    105.57607574	     12.83049063	    -12.58093622	     -3.25794834	     73.22905830	    103.78090880
      1.10000000	     -4.07807636	      0.80839067	      7.46090890	      1.24107028	      0.91499308	     -0.20208795	     29.93487573	     -1.56321439	     -7.23494818	      8.81350464	      0.15382467	     -4.25928911	     -9.80004492	     -7.33249900	    -10.28288497	      2.58729017	      3.97365708	     14.49950530	      0.25306411	     18.38989816	      5.60539859	     -7.33249900	     -6.47758366	     -2.64813787	    -15.06086664	    -19.39599334	    -11.49367924	      7.56302684	     28.50759281	    105.42541695	     12.02491783	    -12.36618697	     -3.81002267	     73.56352564	    103.87427421
      1.11000000	     -4.03398810	      0.45057460	      7.44543387	      1.25537829	      0.91411230	     -0.20061246	     29.93958451	     -0.98564872	     -6.76892488	     10.26968500	      0.17923982	     -6.10927369	    -11.42514228	     -7.33845726	    -10.35015936	      2.05951086	      4.34082591	     16.10779901	      0.28113413	     17.32591984	      4.36998287	     -7.33845726	     -6.33600876	     -2.21900089	    -14.97411285	    -19.13326289	    -11.40510568	      7.14431326	     28.49411680	    105.34617611	     11.33571576	    -12.10074133	     -4.10026125	     73.66046426	    103.94701925
      1.12000000	     -3.83244497	      0.04022604	      7.41262121	      1.26978597	      0.91376707	     -0.19900626	     29.80380186	     -0.34349192	     -6.31257592	     11.84614435	      0.20675422	     -7.13209360	    -12.18958758	     -7.34038379	    -10.41524781	      1.41018307	      4.49758035	     17.96692486	      0.31358200	     16.19309913	      3.65965389	     -7.34038379	     -6.37615397	     -1.72740080	    -14.76912748	    -18.80266465	    -11.28569577	      6.98276605	     28.44196315	    105.31531376	     10.66690778	    -11.83408715	     -4.23658506	     73.56393628	    103.95230552
      1.13000000	     -3.83609062	     -0.35561653	      7.28810726	      1.28407469	      0.91361904	     -0.19725229	     29.78358010	      0.44268526	     -4.97290892	     13.17658540	      0.22997480	     -9.45392105	    -15.16211008	     -7.34720710	    -10.12590229	      0.92198697	      5.06126262	     20.02672769	      0.34953234	     14.35051317	      1.78878844	     -7.34720710	     -6.19493702	     -1.28994172	    -14.70815620	    -18.21007173	    -11.13772548	      6.54920034	     28.26998042	    105.25992058	      9.63002241	    -11.50354568	     -4.77409827	     73.55874971	    104.00331140
      1.14000000	     -3.65192129	     -0.81902441	      7.14164778	      1.29833406	      0.91404898	     -0.19548534	     29.57993226	      1.30095530	     -3.86561350	     14.66071609	      0.25587777	    -10.46311048	    -16.91247132	     -7.35284368	     -9.73742262	      0.29685900	      5.27173125	     22.54620139	      0.39350545	     12.47822044	      0.66194520	     -7.35284368	     -6.24640023	     -0.73684639	    -14.43798311	    -17.57984470	    -11.01052255	      6.34071762	     28.12429621	    105.25591516	      8.76403705	    -11.18723619	     -5.01315977	     73.24361208	    104.02733509
